PathFileType	4	(X/Y/Z)	/Users/itak/Documents/Research/Walk-IL/dataset/trc/00187_00008.trc
DataRate	CameraRate	NumFrames	NumMarkers	Units	OrigDataRate	OrigDataStartFrame	OrigNumFrames
100.000000	100.000000	4	53	mm	100.000000	287	766
Frame#	Time	RPSI			LPSI			L3			STRN			T10			C7			CLAV			RBAK			LBAK			LSHO			LUPA			LAEL			LAOL			LWTS			LWPS			LFRA			LIFD			LHPS			LHTS			RSHO			RUPA			RAEL			RAOL			RWTS			RWPS			RFRA			RIFD			RHTS			RHPS			RBHD			LFHD			RFHD			LBHD			LHIP			RHIP			RASI			LASI			LKNE			LTHI			LANK			LTIP			LTOE			LMT1			LMT5			LHEE			RKNE			RTHI			RANK			RTIP			RTOE			RMT1			RMT5			RHEE			
		X1	Y1	Z1	X2	Y2	Z2	X3	Y3	Z3	X4	Y4	Z4	X5	Y5	Z5	X6	Y6	Z6	X7	Y7	Z7	X8	Y8	Z8	X9	Y9	Z9	X10	Y10	Z10	X11	Y11	Z11	X12	Y12	Z12	X13	Y13	Z13	X14	Y14	Z14	X15	Y15	Z15	X16	Y16	Z16	X17	Y17	Z17	X18	Y18	Z18	X19	Y19	Z19	X20	Y20	Z20	X21	Y21	Z21	X22	Y22	Z22	X23	Y23	Z23	X24	Y24	Z24	X25	Y25	Z25	X26	Y26	Z26	X27	Y27	Z27	X28	Y28	Z28	X29	Y29	Z29	X30	Y30	Z30	X31	Y31	Z31	X32	Y32	Z32	X33	Y33	Z33	X34	Y34	Z34	X35	Y35	Z35	X36	Y36	Z36	X37	Y37	Z37	X38	Y38	Z38	X39	Y39	Z39	X40	Y40	Z40	X41	Y41	Z41	X42	Y42	Z42	X43	Y43	Z43	X44	Y44	Z44	X45	Y45	Z45	X46	Y46	Z46	X47	Y47	Z47	X48	Y48	Z48	X49	Y49	Z49	X50	Y50	Z50	X51	Y51	Z51	X52	Y52	Z52	X53	Y53	Z53	

288	2.87	819.7223510742188	1003.241821289062	-457.5986938476562	738.4105834960938	1006.3525390625	-364.0323486328125	778.0302734375	1041.547485351562	-410.1932983398438	587.70458984375	1243.877319335938	-593.840576171875	785.760009765625	1202.157958984375	-368.0732116699219	715.88427734375	1466.607543945312	-408.499267578125	595.6600952148438	1357.878540039062	-567.417236328125	852.1722412109375	1298.293823242188	-426.2475280761719	643.298828125	1439.458374023438	-338.835693359375	534.7970581054688	1421.414672851562	-351.0340881347656	502.105224609375	1281.751831054688	-288.2720336914062	480.7757263183594	1063.454833984375	-323.6141967773438	568.6520385742188	1049.798950195312	-321.2630615234375	444.1884155273438	880.4560546875	-504.0957946777344	445.4464111328125	830.3988037109375	-425.1144409179688	458.3945007324219	959.2272338867188	-360.8334350585938	445.0101318359375	713.3602905273438	-588.3220825195312	434.8157653808594	772.6002197265625	-468.5137939453125	416.1385192871094	807.4081420898438	-530.347900390625	816.64111328125	1449.081298828125	-569.9893798828125	886.3085327148438	1388.665405273438	-596.4194946289062	967.9627685546875	1110.28955078125	-623.8680419921875	893.13232421875	1092.8974609375	-561.913818359375	884.5401000976562	887.829345703125	-749.0828857421875	965.474609375	872.1654052734375	-714.549560546875	973.3126220703125	1040.25732421875	-660.7761840820312	861.947021484375	698.5972290039062	-758.481201171875	879.7415161132812	794.7628784179688	-782.6131591796875	950.7595825195312	791.2269897460938	-742.9085693359375	730.3597412109375	1625.598266601562	-487.02880859375	523.1527709960938	1672.135864257812	-535.9334716796875	625.3895874023438	1685.706420898438	-613.1337280273438	627.5250244140625	1617.356811523438	-397.2335510253906	586.5586547851562	947.2247924804688	-342.5455627441406	790.3738403320312	964.9725341796875	-657.7227172851562	693.1837158203125	994.9508666992188	-666.8419799804688	527.5059204101562	975.35009765625	-471.7206115722656	705.060302734375	458.9225769042969	-392.3246154785156	647.2669067382812	595.78857421875	-373.5417785644531	906.8944091796875	46.51058197021484	-303.3569946289062	796.358154296875	249.4508361816406	-346.9844360351562	788.498046875	36.10977935791016	-487.9388427734375	857.3270874023438	33.6959342956543	-476.7775573730469	808.046142578125	36.10324096679688	-362.8155517578125	991.668212890625	57.15034103393555	-305.5889587402344	621.0403442382812	522.9808349609375	-804.712158203125	712.2567138671875	767.2215576171875	-747.5702514648438	493.0298767089844	67.74378204345703	-944.14599609375	565.2688598632812	428.0813903808594	-838.5848999023438	320.9748229980469	177.5452728271484	-1002.822326660156	340.5577697753906	151.4968872070312	-940.465576171875	416.6353759765625	103.4743499755859	-1023.079895019531	506.6442565917969	35.83345794677734	-867.8311157226562	
289	2.88	812.9833374023438	1001.830017089844	-467.324951171875	732.7534790039062	1005.418151855469	-372.7369995117188	771.7679443359375	1039.978515625	-419.7936096191406	580.1245727539062	1242.361572265625	-601.4136352539062	779.8561401367188	1200.6494140625	-377.0051879882812	709.7395629882812	1465.186279296875	-416.9058227539062	588.4122314453125	1356.355712890625	-575.0791015625	845.8320922851562	1296.612426757812	-435.4326171875	637.5071411132812	1438.112670898438	-346.8011169433594	528.84375	1420.025390625	-358.4274597167969	496.9902648925781	1280.412353515625	-295.2134704589844	476.1419067382812	1061.893188476562	-329.1190185546875	563.9857177734375	1048.64111328125	-327.166259765625	440.2481384277344	876.716064453125	-507.6901550292969	441.3871459960938	827.7416381835938	-427.9747314453125	454.0918884277344	957.2251586914062	-365.2492980957031	442.2070617675781	708.380615234375	-589.4981689453125	431.1179504394531	769.3234252929688	-470.6358337402344	412.72607421875	803.10595703125	-533.0732421875	809.5555419921875	1447.412475585938	-579.027587890625	879.05615234375	1386.880981445312	-605.7802124023438	960.3749389648438	1108.488525390625	-633.0538330078125	885.776123046875	1091.1279296875	-570.6882934570312	877.1506958007812	885.27099609375	-757.0652465820312	958.2318115234375	870.0403442382812	-722.6580200195312	965.720458984375	1038.372680664062	-669.6990966796875	855.0692138671875	695.8910522460938	-765.2719116210938	872.523193359375	791.9025268554688	-790.0255737304688	943.7083129882812	788.8848876953125	-750.4655151367188	724.2021484375	1624.089721679688	-495.8370361328125	516.5888061523438	1670.857421875	-542.8937377929688	618.114013671875	1684.20556640625	-621.052490234375	622.1925659179688	1616.078979492188	-405.0729675292969	581.256103515625	946.8120727539062	-349.0240783691406	781.464599609375	963.025634765625	-667.2191162109375	684.1034545898438	993.0647583007812	-675.1631469726562	520.1351318359375	974.0592651367188	-478.3220825195312	701.1276245117188	458.8764343261719	-396.0793762207031	642.753173828125	595.5563354492188	-378.0336303710938	906.8826904296875	48.39428329467773	-304.009033203125	794.461669921875	250.5875701904297	-349.1238098144531	788.4778442382812	36.0849723815918	-487.9235229492188	857.1029052734375	33.74606323242188	-476.93994140625	808.0869140625	36.1257209777832	-363.0711364746094	991.6287841796875	60.41290664672852	-306.463623046875	610.18994140625	521.7679443359375	-811.9473266601562	702.9228515625	765.2409057617188	-755.905029296875	474.6747741699219	69.48125457763672	-950.7855224609375	553.1837768554688	427.7297058105469	-845.4744262695312	303.7806396484375	179.41552734375	-1007.813598632812	324.0463256835938	153.2773284912109	-945.7333374023438	398.1274719238281	104.4526443481445	-1029.56640625	490.3270874023438	36.51991271972656	-875.8306884765625	
290	2.89	806.1244506835938	1000.621398925781	-477.2190856933594	726.9127807617188	1004.580200195312	-381.7567138671875	765.4462890625	1038.71484375	-429.38134765625	572.4130859375	1241.0439453125	-609.0573120117188	773.7651977539062	1199.271484375	-386.0565795898438	703.4654541015625	1463.930541992188	-425.3673095703125	581.0149536132812	1355.04736328125	-582.8094482421875	839.3213500976562	1295.073852539062	-444.698974609375	631.5879516601562	1436.927734375	-354.8351135253906	522.7937622070312	1418.838500976562	-365.8616333007812	491.7537231445312	1279.338012695312	-302.1636352539062	471.4278259277344	1060.571411132812	-334.3876953125	559.2529296875	1047.732299804688	-332.9169921875	436.1784973144531	873.1018676757812	-510.846435546875	437.2090454101562	825.2733154296875	-430.4013061523438	449.7013244628906	955.3453369140625	-369.3830871582031	439.2513427734375	703.5263671875	-590.14111328125	427.3174438476562	766.210205078125	-472.2677612304688	409.1142272949219	798.9237060546875	-535.3115234375	802.329833984375	1445.9326171875	-588.0960693359375	871.6507568359375	1385.294067382812	-615.173583984375	952.61474609375	1106.905639648438	-642.3020629882812	878.2573852539062	1089.575927734375	-579.5062255859375	869.5908203125	882.9243774414062	-765.1052856445312	950.8131713867188	868.1346435546875	-730.8156127929688	957.9545288085938	1036.697021484375	-678.6861572265625	848.0416870117188	693.4481201171875	-772.1403198242188	865.1344604492188	789.2572021484375	-797.4908447265625	936.4901123046875	786.7584228515625	-758.081298828125	717.92529296875	1622.770751953125	-504.7372741699219	509.8758544921875	1669.761352539062	-549.87255859375	610.6826171875	1682.89208984375	-629.0028076171875	616.7586059570312	1614.990966796875	-412.94970703125	575.7110595703125	946.1837768554688	-356.1241455078125	772.3847045898438	961.3082275390625	-676.8200073242188	674.8707885742188	991.36474609375	-683.5501708984375	512.5586547851562	972.978515625	-485.0541687011719	696.913330078125	458.9485473632812	-400.1022033691406	637.9872436523438	595.4326171875	-382.8057861328125	906.7285766601562	50.51613998413086	-304.7013549804688	792.350830078125	251.9120788574219	-351.4282531738281	788.496337890625	36.10639572143555	-487.8990478515625	856.8402099609375	33.827392578125	-477.1786193847656	808.1136474609375	36.19086074829102	-363.3619995117188	991.4309692382812	64.07292175292969	-307.3777160644531	598.94921875	520.7239379882812	-819.1022338867188	693.1286010742188	763.5803833007812	-764.3504638671875	458.3536987304688	70.03176879882812	-956.1801147460938	541.019287109375	427.046875	-852.204833984375	288.2821350097656	179.6546630859375	-1011.981628417969	309.1655883789062	153.5731506347656	-950.104736328125	381.6698913574219	104.1767272949219	-1034.8828125	476.0067138671875	36.57516479492188	-882.473388671875	
291	2.9	799.1205444335938	999.6328125	-487.2774353027344	720.8665771484375	1003.867492675781	-391.0514221191406	759.0000610351562	1037.724365234375	-439.0012817382812	564.5618286132812	1239.949462890625	-616.7730712890625	767.4739990234375	1198.021240234375	-395.2485656738281	697.0767211914062	1462.840454101562	-433.8905334472656	573.4673461914062	1353.971923828125	-590.6068725585938	832.6350708007812	1293.678466796875	-454.0705871582031	625.5638427734375	1435.9072265625	-362.9352416992188	516.6702880859375	1417.862670898438	-373.3240051269531	486.4057006835938	1278.53662109375	-309.0854797363281	466.64111328125	1059.509155273438	-339.4297485351562	554.4625244140625	1047.087036132812	-338.5319519042969	431.9848937988281	869.6321411132812	-513.5498046875	432.9146728515625	823.018310546875	-432.3949890136719	445.2267761230469	953.6446533203125	-373.2227478027344	436.1153259277344	698.8275146484375	-590.2566528320312	423.4042053222656	763.28662109375	-473.411865234375	405.2913208007812	794.8885498046875	-537.0465087890625	794.9609375	1444.651123046875	-597.2098999023438	864.086181640625	1383.91845703125	-624.616455078125	944.6781616210938	1105.551391601562	-651.62548828125	870.5836181640625	1088.272583007812	-588.3505249023438	861.8411865234375	880.8019409179688	-773.2176513671875	943.2064819335938	866.4559936523438	-739.04541015625	950.0078125	1035.241943359375	-687.754638671875	840.8617553710938	691.2901611328125	-779.097412109375	857.5584106445312	786.8432006835938	-805.0252075195312	929.0895385742188	784.8624877929688	-765.7814331054688	711.5222778320312	1621.650634765625	-513.7228393554688	503.011474609375	1668.8583984375	-556.8715209960938	603.0986938476562	1681.783935546875	-636.98095703125	611.2149047851562	1614.104248046875	-420.853759765625	569.87255859375	945.3706665039062	-363.9346618652344	763.1245727539062	959.847412109375	-686.5194702148438	665.4857788085938	989.8931884765625	-692.016357421875	504.8409118652344	972.095947265625	-491.9252319335938	692.3958129882812	459.1277465820312	-404.4315490722656	632.9457397460938	595.4050903320312	-387.8911437988281	906.4395141601562	52.89624786376953	-305.4651184082031	790.0158081054688	253.4266052246094	-353.9175720214844	788.5477294921875	36.17472839355469	-487.8694763183594	856.5269165039062	33.93966674804688	-477.4961242675781	808.1383056640625	36.30658340454102	-363.6735229492188	991.0704956054688	68.14662170410156	-308.3826293945312	587.2996215820312	519.8570556640625	-826.1549072265625	682.8496704101562	762.2687377929688	-772.8888549804688	444.0571899414062	69.31851196289062	-960.4144897460938	528.7435913085938	426.0254211425781	-858.7424926757812	274.4068603515625	178.2201538085938	-1015.295776367188	295.8834533691406	152.3200378417969	-953.5647583007812	367.2308044433594	102.6173095703125	-1039.066528320312	463.7438659667969	35.98233795166016	-887.8324584960938	
